<?xml version="1.0" encoding="UTF-8"?>
<svg xmlns="http://www.w3.org/2000/svg" version="1.1" xmlns:cc="http://creativecommons.org/ns#" xmlns:dc="http://purl.org/dc/elements/1.1/" xmlns:inkscape="http://www.inkscape.org/namespaces/inkscape" xmlns:rdf="http://www.w3.org/1999/02/22-rdf-syntax-ns#" xmlns:sodipodi="http://sodipodi.sourceforge.net/DTD/sodipodi-0.dtd" xmlns:svg="http://www.w3.org/2000/svg" viewBox="0 0 264 233">
  <!-- Generator: Adobe Illustrator 29.5.1, SVG Export Plug-In . SVG Version: 2.1.0 Build 141)  -->
  <defs>
    <style>
      .st0 {
        fill: #008a44;
      }

      .st1 {
        fill: #fff;
      }

      .st2 {
        fill: #d4181f;
      }
    </style>
  </defs>
  <g id="svg3082" sodipodi:docname="Boishakhi_TV_logo.svg">
    <sodipodi:namedview id="namedview3084" bordercolor="#666666" borderopacity="1" gridtolerance="10" guidetolerance="10" inkscape:current-layer="svg3082" inkscape:cx="82.731493" inkscape:cy="155.20994" inkscape:deskcolor="#d1d1d1" inkscape:pagecheckerboard="0" inkscape:pageopacity="0" inkscape:pageshadow="2" inkscape:showpageshadow="2" inkscape:window-height="991" inkscape:window-maximized="1" inkscape:window-width="1920" inkscape:window-x="-9" inkscape:window-y="-9" inkscape:zoom="1.4142136" objecttolerance="10" pagecolor="#ffffff" showgrid="false"/>
    <ellipse id="path1" class="st1" cx="151.6" cy="74.92" rx="71.78" ry="71.95"/>
    <path id="path3094" class="st0" d="M47.38,185.34c-7.08-.57-14.51-2.76-19.98-5.87-7.63-4.35-13.8-10.9-18.29-19.42-2.79-5.29-4.84-10.94-6.05-16.71l-.69-3.25v-47.81c0-50.57,0-50.1,1.24-54.65.25-.9.55-2.01.67-2.46.56-2.12,2.46-6.14,4.07-8.62,4.53-6.97,10.84-11.94,20.57-16.22,3.13-1.38,9.35-3.13,14.78-4.17,3.13-.6,10.95-.81,16.14-.44,2.33.17,7.57.55,11.63.85,4.06.3,9.97.72,13.13.95s6.73.54,7.94.69c1.2.15,4.22.41,6.7.56,2.48.16,5.62.4,6.98.54,2.26.24,5.34.52,10.9.98l2.15.18-1.83,1.06c-1,.58-1.88,1.06-1.95,1.06-.11,0-2.81,1.77-5.99,3.94-3.46,2.36-10.05,8.55-13,12.2-2.19,2.72-4,5.19-5.31,7.26-.77,1.21-1.55,2.44-1.73,2.74-1.01,1.59-3.57,6.93-4.7,9.82-3.37,8.6-4.95,16.98-4.94,26.23,0,10.63,2.09,20.43,6.33,29.69.43.94.79,1.75.79,1.79,0,.13,3.11,5.72,3.67,6.61,1.52,2.39,2.03,3.15,3.15,4.65,5.09,6.82,11.82,13.16,18.86,17.75,3.17,2.07,9.23,5.26,11.69,6.16.89.33,1.87.71,2.17.85.81.38,4.78,1.68,5.88,1.94.53.12,1.45.36,2.05.53,2.58.74,7.96,1.53,13.22,1.94,12.04.94,24.75-1.71,36.72-7.66,10.48-5.21,20.99-14.58,27.48-24.53.59-.9,1.28-1.96,1.54-2.34s.81-1.37,1.22-2.19c.41-.82.96-1.8,1.21-2.18,1.71-2.55,5.06-11.99,6.54-18.47.72-3.13,1.41-10.26,1.41-14.51,0-15.8-4.98-30.51-14.73-43.52-2.53-3.38-7.57-8.74-10.4-11.08-.81-.67-1.72-1.43-2.03-1.69-.31-.26-.64-.48-.73-.48s-.33-.26-.53-.58c-.35-.57-.33-.58.82-.41.65.09,4.41.42,8.35.72,8.7.66,12.35,1.15,16.48,2.22,12.91,3.33,23.69,12.99,30.17,27.02,2.13,4.6,3.86,10.01,4.17,13.04,1,9.59,1.61,15.71,2.07,20.52.3,3.16.67,6.79.81,8.07.15,1.28.46,4.42.7,6.98s.61,6.5.82,8.76c.55,5.77,1.45,15.83,1.76,19.56.14,1.73.39,4.63.55,6.45.35,3.94.05,8.76-.81,12.98-1.5,7.34-4.38,12.98-9.26,18.1-3.65,3.84-6.32,5.77-11.41,8.26-5.03,2.47-9.05,3.59-13.82,3.86-1.73.1-5.49.35-8.35.57-2.86.21-7.17.52-9.58.68-6.19.4-18.63,1.26-27.77,1.91-4.29.31-11.37.8-15.73,1.09-8.02.54-17.65,1.2-31.88,2.19-4.29.3-11.43.79-15.87,1.1-4.44.3-9.86.68-12.04.84-11.79.84-20.17,1.41-27.77,1.91-4.67.3-10.88.74-13.82.96-5.65.43-14.27.69-16.55.51h0Z" inkscape:connector-curvature="0" sodipodi:nodetypes="cccccccccscscsssssccscccccccscccsssssccsscsscsssssscccsssssssccsssssssssscc"/>
    <path id="path1-5" class="st1" d="M13.18,231.38c-4.22-1.39-7.48-4.89-8.33-8.93-.22-1.04-.29-4.86-.23-12.31l.08-10.81,2.8-.08,2.8-.08v10.11l1.57-.7c1.88-.83,5.02-1.13,7.14-.67,3.69.79,7,3.4,8.56,6.74,1.07,2.28,1.35,5.65.69,8.16-.89,3.38-3.83,6.8-6.94,8.1-1.94.81-6.38,1.06-8.16.47h0ZM19.67,225.65c2.01-1.18,3.23-3.41,3.23-5.93,0-3.92-2.71-6.68-6.57-6.68-2.04,0-3.05.43-4.49,1.91-1.23,1.27-1.65,2.51-1.66,4.89,0,3.03,1.48,5.39,4.02,6.36,1.4.53,4.08.26,5.46-.55h0ZM40.1,231.12c-2.27-.96-3.36-1.7-4.77-3.27-2.13-2.37-3.13-4.92-3.13-8.01,0-4.83,2.57-8.92,6.99-11.1,2.27-1.12,5.69-1.39,8.21-.67,7.67,2.22,11.14,10.64,7.3,17.73-.99,1.83-3.29,3.91-5.47,4.93-1.65.78-2.16.88-4.72.95-2.52.07-3.06,0-4.41-.56h0ZM47.43,225.58c2.61-1.52,3.79-5.18,2.69-8.31-.92-2.6-2.66-3.88-5.51-4.06-1.65-.11-2.19-.03-3.21.47-3.58,1.73-4.66,7.36-2.03,10.55,1.91,2.32,5.4,2.91,8.06,1.36h0ZM74.57,231.37c-1.48-.53-3.27-1.64-4.19-2.61l-.81-.85,1.81-1.81,1.81-1.81,1.21.87c1.4,1.01,3.44,1.7,4.36,1.47.35-.09.91-.41,1.25-.71,1.35-1.22.53-2.31-3.24-4.31-3.49-1.85-5.24-3.5-5.88-5.55-.59-1.87-.37-3.51.7-5.19,2.54-4,9.27-4.28,12.93-.53l1.02,1.05-1.73,1.71-1.73,1.71-1.44-.97c-1.6-1.08-3.03-1.27-4.06-.55-1.35.95-.56,1.94,2.95,3.68,4.78,2.37,6.42,4.35,6.39,7.7-.03,3.2-1.59,5.38-4.69,6.54-1.7.64-5.11.72-6.67.16h0ZM123.18,231.25c-3.67-1.57-6.16-4.37-7.14-8.08-.48-1.81-.48-5.12,0-6.93.91-3.43,3.23-6.35,6.11-7.7,1.37-.64,1.93-.74,4.18-.74s2.81.1,4.3.78c.93.43,1.91,1.02,2.16,1.3.7.77.93.63.93-.58v-1.09h5.75v22.98h-5.71l-.17-2.21-1.17.86c-.64.47-1.78,1.1-2.53,1.38-1.76.67-5.15.68-6.69.02h0ZM130.98,225.62c1.47-.97,2.41-2.49,2.79-4.49.59-3.15-.54-5.92-3-7.36-1.69-.99-4.25-1.06-5.99-.15-4.02,2.11-4.58,8.58-1,11.54,1.35,1.12,2.3,1.39,4.39,1.27,1.28-.07,1.99-.28,2.8-.81h0ZM60.44,219.78l.08-11.42,2.8-.08,2.8-.08v23h-5.76l.08-11.42h0ZM90.61,230.86c-.07-.19-.1-7.36-.06-15.94l.07-15.6,2.71-.08c1.61-.05,2.78.03,2.88.2.09.15.15,2.48.12,5.18-.03,2.69.05,5.06.17,5.25.16.26.43.2,1.1-.29,4.41-3.14,10.07-2.27,12.42,1.92l.84,1.5.09,9.1.09,9.1h-5.78v-7.46c-.01-6.76-.06-7.56-.54-8.61-1.57-3.47-6.15-2.79-7.84,1.16-.39.9-.49,2.23-.57,7.52-.06,3.54-.1,6.65-.09,6.91,0,.42-.3.48-2.74.48-1.94,0-2.78-.1-2.88-.34h0ZM145.48,215.19v-16.02l2.8.08,2.8.08.14,9.09.14,9.09,1.5-1.7c.83-.94,2.71-3.03,4.19-4.65l2.69-2.94h7.18l-.83.89c-3.61,3.87-8.85,9.87-8.85,10.14,0,.18.59.95,1.3,1.7.71.76,2.09,2.23,3.06,3.28.97,1.05,2.57,2.77,3.56,3.83.99,1.05,2.03,2.19,2.32,2.53l.53.62h-7.11l-4.76-5.21-4.77-5.21-.07,5.21-.07,5.21h-5.74v-16.02h0ZM170.55,229.93c-.23-1.67-.23-24.08,0-27.83l.18-2.92h5.39v5.32c0,3.01.11,5.39.26,5.48.14.09.84-.21,1.54-.66,3.95-2.5,8.79-2.05,11.37,1.07,1.47,1.78,1.6,2.8,1.6,12.23v8.57h-5.39l-.15-7.46c-.16-8.06-.27-8.73-1.7-10.05-.61-.57-1.01-.68-2.34-.68-1.87,0-2.7.49-3.95,2.34-.73,1.08-.83,1.49-1.01,4.22-.11,1.66-.21,4.96-.22,7.33l-.02,4.31h-5.4l-.17-1.27h0ZM195.9,219.78l.06-11.42h5.75l.07,11.42.07,11.42h-6.01l.06-11.42h0ZM219.9,222.17v-9.03h-3.01v-4.93h3.01v-8.48h5.75v8.46l1.71.08,1.71.08-.05,1.92c-.03,1.05-.06,2.13-.07,2.39-.01.4-.28.48-1.66.48h-1.64v18.06h-5.75v-9.03h0ZM239.51,231.12c-.1-.17-9.12-21.2-9.68-22.56-.11-.26.57-.34,2.87-.34h3.01l.26.75c.15.41,1.41,3.44,2.81,6.73,2.1,4.93,2.59,5.89,2.83,5.47.16-.28,1.47-3.27,2.93-6.66l2.64-6.16,2.94-.08c2.32-.06,2.91,0,2.8.27-.4.95-6.84,16.11-8.14,19.16l-1.49,3.49h-1.83c-1.01,0-1.88.04-1.95-.07h0ZM62.59,206.1c-2.26-.4-3.6-3.45-2.46-5.59.85-1.59,3.78-2.24,5.25-1.17,3.18,2.32,1.06,7.44-2.79,6.76h0ZM198.05,206.01c-1.41-.3-2.53-1.58-2.7-3.09-.25-2.22.84-3.74,2.99-4.14,1.28-.24,2.84.48,3.54,1.62.58.95.68,2.79.2,3.84-.59,1.3-2.44,2.11-4.03,1.77h0Z" sodipodi:nodetypes="ccccccccscscscccssccscccccscsssccsscccsscccccssscccscccscssscccsccsscsccccccccsscccsscsscccccccccccccccscsscscccccccsscsccccccccsccccscscscccccccccccccccccsccsscccccssscccccccccccccccccccccccccccccccccssccccccccsscsccccscccscccsccccsccccc"/>
    <path id="path1-8" class="st2" d="M145.2,146.52c-2.03-.19-4.49-.5-5.47-.67s-2.33-.42-3.01-.54c-.68-.12-1.72-.37-2.33-.54-.6-.17-1.53-.41-2.05-.53-1.11-.25-5.08-1.56-5.88-1.94-.3-.14-1.28-.52-2.17-.85-2.46-.9-8.52-4.09-11.69-6.16-7.03-4.59-13.77-10.93-18.86-17.75-1.12-1.5-1.63-2.26-3.15-4.65-.56-.89-3.67-6.49-3.67-6.61,0-.04-.35-.85-.79-1.79-7.06-15.44-8.29-33.5-3.4-50.15,1.35-4.6,4.76-12.51,6.72-15.58.19-.29.97-1.53,1.73-2.74,2.32-3.66,7.07-9.7,7.38-9.39.06.06.15,12.04.21,26.63.11,28.29.1,28.22,1.54,34.19,3.63,15.04,14.39,28.41,29.38,36.51,5.48,2.96,12.7,5.31,18.51,6.02,3,.37,10.99.37,13.97,0,12.47-1.54,23.51-7.01,32.49-16.09,4.52-4.57,7.64-8.83,10.35-14.17,2.77-5.46,3.91-10.43,4.52-19.82.73-11.15-1.18-22.04-5.38-30.79-7.05-14.68-22.17-26.09-39.21-29.59-3.13-.64-4.08-.71-9.76-.72-4.91,0-6.89.1-9.03.48-5.69,1.03-10.69,2.55-15.24,4.65-.85.4-1.62.72-1.7.72s-.15-4.05-.15-9V6.64l.75-.29c2.74-1.07,10.04-2.57,14.97-3.07,4.64-.47,13.79-.19,18.21.55,10.9,1.84,20.17,5.49,28.92,11.38,1.44.97,2.7,1.76,2.8,1.76s.44.28.75.62c.31.34.97.92,1.47,1.3,3.55,2.69,8.92,8.23,12.1,12.48,9.71,12.96,14.7,27.69,14.7,43.47,0,4.25-.69,11.38-1.41,14.51-1.48,6.48-4.83,15.92-6.54,18.47-.25.38-.8,1.36-1.21,2.18-.41.82-.96,1.81-1.22,2.19s-.95,1.44-1.54,2.34c-7.77,11.9-20.15,21.98-33.36,27.16-11.4,4.47-21.58,5.95-33.24,4.84h0ZM149.71,99.57c-8.77-2.02-15.89-8.37-18.76-16.73-1-2.92-1.34-5.13-1.34-8.72,0-13.12,9.52-23.85,22.57-25.42,15.02-1.8,28.59,11.28,27.68,26.69-.18,3.05-.69,5.74-1.41,7.39-1.27,2.91-2.21,4.94-2.35,5.06-.09.08-.55.71-1.02,1.41-1.33,1.95-4.34,4.86-6.68,6.46-1.16.79-2.17,1.44-2.24,1.44s-.91.36-1.86.8-2.03.86-2.41.93c-.38.07-1.4.33-2.27.57-1.77.49-7.99.57-9.91.13h0Z"/>
  </g>
</svg>