<?xml version="1.0" encoding="UTF-8" standalone="no"?>
<!-- Created with Inkscape (http://www.inkscape.org/) -->

<svg
   id="svg3082"
   sodipodi:docname="Boishakhi_TV_logo.svg"
   height="233"
   width="264"
   version="1.1"
   inkscape:version="1.4.3 (0d15f75, 2025-12-25)"
   xmlns:inkscape="http://www.inkscape.org/namespaces/inkscape"
   xmlns:sodipodi="http://sodipodi.sourceforge.net/DTD/sodipodi-0.dtd"
   xmlns="http://www.w3.org/2000/svg"
   xmlns:svg="http://www.w3.org/2000/svg"
   xmlns:rdf="http://www.w3.org/1999/02/22-rdf-syntax-ns#"
   xmlns:cc="http://creativecommons.org/ns#"
   xmlns:dc="http://purl.org/dc/elements/1.1/">
  <defs
     id="defs1" />
  <metadata
     id="metadata3088">
    <rdf:RDF>
      <cc:Work
         rdf:about="">
        <dc:format>image/svg+xml</dc:format>
        <dc:type
           rdf:resource="http://purl.org/dc/dcmitype/StillImage" />
        <dc:title />
      </cc:Work>
    </rdf:RDF>
  </metadata>
  <sodipodi:namedview
     id="namedview3084"
     bordercolor="#666666"
     inkscape:pageshadow="2"
     guidetolerance="10"
     pagecolor="#ffffff"
     gridtolerance="10"
     inkscape:window-maximized="1"
     inkscape:zoom="1.4142136"
     objecttolerance="10"
     borderopacity="1"
     inkscape:current-layer="svg3082"
     inkscape:cx="82.731493"
     inkscape:cy="155.20994"
     inkscape:window-y="-9"
     inkscape:window-x="-9"
     inkscape:window-width="1920"
     showgrid="false"
     inkscape:pageopacity="0"
     inkscape:window-height="991"
     inkscape:showpageshadow="2"
     inkscape:pagecheckerboard="0"
     inkscape:deskcolor="#d1d1d1" />
  <ellipse
     style="fill:#ffffff;stroke-width:1.13199"
     id="path1"
     cx="151.59665"
     cy="74.919617"
     rx="71.782898"
     ry="71.951324" />
  <path
     id="path3094"
     inkscape:connector-curvature="0"
     fill="#008a44"
     d="m 47.383614,185.3364 c -7.075846,-0.57187 -14.5074,-2.7581 -19.977089,-5.87465 C 19.774681,175.11391 13.606163,168.56342 9.113575,160.04011 6.3253743,154.75101 4.2773191,149.09526 3.0594308,143.32733 L 2.3729151,140.0767 2.3745568,92.264124 C 2.3761985,41.698913 2.3658009,42.16407 3.6121458,37.613748 3.8595459,36.710798 4.1590873,35.602631 4.2777569,35.151156 4.8334817,33.036064 6.7343286,29.011095 8.3467788,26.532086 12.880683,19.562953 19.18437,14.591528 28.914069,10.31428 32.042107,8.939169 38.260424,7.1832319 43.689617,6.142103 46.82176,5.5414495 54.63912,5.3295846 59.833272,5.7045552 c 2.332622,0.1684002 7.565628,0.5491031 11.628904,0.8460369 4.063276,0.2969065 9.973496,0.7241935 13.133821,0.9495206 3.160326,0.2253271 6.731083,0.5351485 7.935017,0.6884858 1.203934,0.1533346 4.220608,0.4057256 6.703721,0.5608963 2.483115,0.1551569 5.622915,0.3997333 6.977345,0.5434939 2.26446,0.2403599 5.33972,0.5181019 10.90435,0.9848173 l 2.14853,0.180205 -1.82667,1.059707 c -1.00145,0.582814 -1.88251,1.059736 -1.95365,1.059736 -0.11492,0 -2.81009,1.772792 -5.98684,3.939872 -3.46131,2.361625 -10.052842,8.548202 -12.997006,12.203783 -2.192883,2.721929 -3.997881,5.190869 -5.309895,7.262455 -0.766632,1.210638 -1.547191,2.441933 -1.734567,2.736213 -1.0101,1.586347 -3.568569,6.930006 -4.699445,9.815616 -3.369099,8.595538 -4.949262,16.979568 -4.944337,26.232345 0.0056,10.634837 2.092929,20.428837 6.326398,29.685172 0.431938,0.94435 0.785347,1.75159 0.785347,1.79386 0,0.12544 3.107243,5.72142 3.671998,6.61315 1.515615,2.39288 2.028956,3.1513 3.14856,4.65156 5.089082,6.81974 11.824267,13.15955 18.856887,17.74927 3.17181,2.07022 9.2317,5.26365 11.6932,6.16222 0.89124,0.32534 1.8667,0.70636 2.16768,0.84667 0.80697,0.37623 4.77606,1.68332 5.88286,1.93729 0.52672,0.12088 1.45019,0.36135 2.05216,0.53439 2.58408,0.74282 7.96265,1.53334 13.21782,1.94265 12.03879,0.93767 24.75178,-1.71344 36.71724,-7.65702 10.48407,-5.20756 20.98703,-14.58155 27.47979,-24.52522 0.58949,-0.90295 1.28227,-1.95557 1.53955,-2.33916 0.25728,-0.38359 0.80601,-1.36862 1.21942,-2.18897 0.41342,-0.82034 0.95875,-1.79936 1.2119,-2.17559 1.7138,-2.54719 5.05953,-11.991451 6.54283,-18.469434 0.71697,-3.131049 1.40885,-10.256694 1.40888,-14.510136 1.2e-4,-15.799166 -4.97882,-30.506036 -14.73423,-43.519463 -2.53368,-3.380044 -7.56727,-8.744115 -10.39925,-11.082209 -0.80587,-0.665338 -1.71739,-1.425184 -2.02562,-1.688544 -0.30824,-0.263361 -0.63511,-0.478838 -0.72636,-0.478838 -0.0913,0 -0.32947,-0.261855 -0.52935,-0.58191 -0.35439,-0.567463 -0.33392,-0.577642 0.82344,-0.409775 0.65278,0.09468 4.40831,0.41719 8.34572,0.716723 8.70006,0.661836 12.35017,1.153177 16.48322,2.218823 12.9059,3.327782 23.69341,12.987433 30.17222,27.019279 2.12516,4.601763 3.85532,10.011529 4.16999,13.037507 0.99691,9.591246 1.61472,15.70887 2.07243,20.521595 0.30057,3.160325 0.66684,6.792648 0.81394,8.071827 0.14711,1.27918 0.46182,4.418984 0.69938,6.977343 0.23754,2.558358 0.60706,6.498502 0.82116,8.755882 0.54705,5.76793 1.45266,15.83419 1.76005,19.56392 0.14263,1.73065 0.39144,4.63268 0.55287,6.44871 0.35049,3.94233 0.0495,8.75806 -0.8112,12.9784 -1.49641,7.3377 -4.38177,12.98059 -9.25579,18.10251 -3.65175,3.83726 -6.31545,5.76739 -11.40617,8.26391 -5.02725,2.46546 -9.05222,3.58964 -13.81788,3.85915 -1.73065,0.0979 -5.4861,0.35325 -8.34545,0.56749 -2.85934,0.21426 -7.16887,0.51835 -9.57674,0.67574 -6.18959,0.40463 -18.62567,1.26142 -27.77256,1.91346 -4.28901,0.30574 -11.36896,0.79572 -15.73322,1.08885 -8.0234,0.53889 -17.64611,1.19999 -31.87688,2.19001 -4.28901,0.29838 -11.43053,0.79164 -15.87003,1.09612 -4.43951,0.30449 -9.85721,0.68045 -12.03934,0.83545 -11.790614,0.83753 -20.173276,1.41438 -27.772559,1.91114 -4.665243,0.30498 -10.883286,0.73631 -13.817874,0.95855 -5.651648,0.428 -14.268529,0.69179 -16.554087,0.5068 z"
     style="stroke-width:0.273621"
     sodipodi:nodetypes="cccccccccscscsssssccscccccccscccsssssccsscsscsssssscccsssssssccsssssssssscc" />
  <path
     d="m 13.181205,231.3794 c -4.2167701,-1.39273 -7.4799802,-4.89234 -8.3325802,-8.93373 -0.2189,-1.03702 -0.29141,-4.85677 -0.2334,-12.31296 l 0.0837,-10.80804 2.80461,-0.0766 2.8046202,-0.0794 v 5.05653 5.05652 l 1.57332,-0.69784 c 1.88172,-0.83462 5.0163,-1.1303 7.14426,-0.6739 3.68595,0.79051 6.99841,3.3992 8.56379,6.74422 1.06674,2.27959 1.35235,5.64809 0.69144,8.15501 -0.89115,3.38059 -3.82522,6.80441 -6.93848,8.09645 -1.94455,0.80705 -6.3762,1.06458 -8.16158,0.47429 z m 6.48757,-5.72689 c 2.01111,-1.18205 3.22599,-3.4148 3.22599,-5.92938 0,-3.92427 -2.70765,-6.67882 -6.56691,-6.68073 -2.03985,-10e-4 -3.05498,0.43051 -4.49095,1.90894 -1.22869,1.26515 -1.649,2.50777 -1.65549,4.89427 -0.008,3.03391 1.48024,5.38541 4.02278,6.35512 1.3964,0.53261 4.08216,0.26227 5.46449,-0.55003 z m 20.43458,5.46804 c -2.26966,-0.95586 -3.36034,-1.70389 -4.76895,-3.27058 -2.12896,-2.36796 -3.12721,-4.92108 -3.13323,-8.01356 -0.01,-4.8264 2.57083,-8.92333 6.98993,-11.09889 2.27029,-1.11766 5.68639,-1.39475 8.20781,-0.66574 7.67426,2.21893 11.14186,10.63702 7.3035,17.72982 -0.99004,1.82941 -3.29412,3.90622 -5.46914,4.92957 -1.64988,0.77628 -2.15904,0.87904 -4.72243,0.95292 -2.51743,0.0726 -3.06292,0.003 -4.40749,-0.56342 z m 7.33113,-5.54492 c 2.60871,-1.52309 3.79458,-5.18485 2.69156,-8.31125 -0.91575,-2.59558 -2.65714,-3.88023 -5.508,-4.06299 -1.6455,-0.10561 -2.18831,-0.0264 -3.21067,0.46854 -3.57595,1.73109 -4.66004,7.35714 -2.03191,10.54564 1.91434,2.3224 5.40265,2.91105 8.05897,1.36014 z m 27.13229,5.79285 c -1.4786,-0.52818 -3.26895,-1.64444 -4.1886,-2.61158 l -0.81082,-0.85277 1.80847,-1.80847 1.80848,-1.80848 1.21274,0.87093 c 1.40305,1.00757 3.44188,1.69559 4.36262,1.47214 0.35086,-0.0851 0.91496,-0.4055 1.25357,-0.71196 1.34575,-1.21792 0.52655,-2.30735 -3.23913,-4.3079 -3.48539,-1.85154 -5.23574,-3.50371 -5.88149,-5.55205 -0.58793,-1.8651 -0.36528,-3.50618 0.70455,-5.19334 2.53789,-4.00171 9.26974,-4.27779 12.92915,-0.53003 l 1.02427,1.04906 -1.72926,1.71388 -1.72926,1.71389 -1.44307,-0.97111 c -1.60301,-1.07875 -3.02844,-1.27002 -4.06355,-0.54517 -1.3547,0.94887 -0.56301,1.93686 2.94881,3.68021 4.77825,2.37202 6.41752,4.34675 6.38851,7.69642 -0.0277,3.19863 -1.58922,5.37529 -4.6885,6.53572 -1.69858,0.63597 -5.10687,0.71792 -6.6676,0.16034 z m 48.611545,-0.11766 c -3.67364,-1.5658 -6.15593,-4.37411 -7.14288,-8.08086 -0.4813,-1.80757 -0.48081,-5.11672 0.001,-6.92618 0.91449,-3.43476 3.22544,-6.34584 6.11078,-7.69779 1.36811,-0.64301 1.92629,-0.74152 4.1782,-0.74152 2.28326,0 2.80571,0.0953 4.29503,0.78333 0.93261,0.43083 1.90596,1.01572 2.16297,1.2997 0.70048,0.77435 0.93032,0.63206 0.93032,-0.57734 v -1.09449 h 2.87302 2.87302 v 11.49209 11.49209 h -2.85715 -2.85715 l -0.1682,-2.2148 -1.17025,0.86287 c -0.64364,0.47457 -1.7839,1.09604 -2.53393,1.38103 -1.76414,0.67031 -5.14517,0.68096 -6.69332,0.0211 z m 7.80423,-5.63086 c 1.4732,-0.97492 2.41337,-2.49061 2.78519,-4.49012 0.58604,-3.1513 -0.54098,-5.91761 -2.99971,-7.36287 -1.69161,-0.99437 -4.25372,-1.05714 -5.98519,-0.1466 -4.01813,2.11317 -4.57659,8.58103 -0.9968,11.54216 1.3487,1.11561 2.30074,1.39127 4.39435,1.27229 1.2849,-0.073 1.99191,-0.27863 2.80216,-0.8149 z m -70.539555,-5.84182 0.0766,-11.42368 2.80461,-0.078 2.80462,-0.078 v 11.50167 11.50166 h -2.88095 -2.88096 l 0.0764,-11.42369 z M 90.60699,230.8598 c -0.072,-0.18811 -0.0989,-7.36041 -0.0598,-15.93845 l 0.071,-15.5964 2.71362,-0.0789 c 1.61264,-0.0469 2.78272,0.0328 2.88369,0.19634 0.0936,0.15137 0.1485,2.48013 0.12211,5.17501 -0.0264,2.69488 0.0484,5.0557 0.16627,5.2464 0.16328,0.2642 0.42545,0.19624 1.10236,-0.28577 4.41351,-3.14281 10.06653,-2.26722 12.41611,1.92296 l 0.84388,1.50491 0.0851,9.09791 0.0851,9.09791 h -2.88972 -2.88971 l -0.006,-7.45617 c -0.005,-6.76035 -0.055,-7.56425 -0.53135,-8.61332 -1.57351,-3.46624 -6.14909,-2.79068 -7.83651,1.15722 -0.38537,0.90163 -0.48557,2.22749 -0.56869,7.52459 -0.0555,3.53655 -0.0978,6.64571 -0.094,6.90893 0.006,0.42465 -0.30353,0.47883 -2.73786,0.47883 -1.94364,0 -2.783,-0.0998 -2.87576,-0.34203 z M 145.479,215.18677 v -16.01642 l 2.80462,0.078 2.80462,0.078 0.13681,9.09353 0.13681,9.09353 1.50492,-1.70181 c 0.8277,-0.93601 2.71429,-3.02735 4.19242,-4.64719 l 2.68696,-2.94416 h 3.59101 3.59101 l -0.83036,0.88927 c -3.61427,3.87064 -8.85302,9.87225 -8.85028,10.13876 0.002,0.17996 0.58672,0.94558 1.2997,1.70138 0.71297,0.75579 2.08964,2.23335 3.05936,3.28345 0.96963,1.0501 2.57031,2.77178 3.55707,3.82577 0.98676,1.05405 2.02869,2.193 2.31539,2.531 l 0.52535,0.61565 h -3.55434 -3.55434 l -4.76375,-5.20975 -4.76648,-5.20701 -0.0739,5.20701 -0.0739,5.20975 h -2.86756 -2.86755 v -16.01642 z m 25.07356,14.74683 c -0.22861,-1.66793 -0.22507,-24.07812 0.004,-27.8273 l 0.17512,-2.91679 h 2.69462 2.69462 v 5.31946 c 0,3.00573 0.11131,5.38815 0.25592,5.47762 0.14075,0.087 0.8358,-0.20959 1.54459,-0.65908 3.94808,-2.50389 8.78981,-2.04769 11.37006,1.07128 1.47049,1.77758 1.60498,2.8027 1.60498,12.23497 v 8.56927 h -2.69547 -2.69547 l -0.14605,-7.45781 c -0.1587,-8.05815 -0.27362,-8.734 -1.70192,-10.05285 -0.61461,-0.56712 -1.01484,-0.68406 -2.34097,-0.68406 -1.87151,0 -2.70327,0.49236 -3.95437,2.34078 -0.73052,1.07921 -0.82908,1.49195 -1.00698,4.21623 -0.10847,1.66091 -0.2058,4.95911 -0.2163,7.32921 l -0.0192,4.30953 h -2.69903 -2.69902 l -0.17401,-1.26949 z m 25.34554,-10.15409 0.0629,-11.42369 h 2.87303 2.87302 l 0.0686,11.42369 0.0686,11.42368 h -3.00601 -3.006 l 0.0643,-11.42368 z m 24.0048,2.39419 v -9.0295 h -1.50492 -1.50492 v -2.46259 -2.46259 h 1.50492 1.50492 v -4.24113 -4.24113 h 2.87302 2.87302 v 4.228 4.22799 l 1.70964,0.0815 1.70964,0.0815 -0.0539,1.91534 c -0.0297,1.05345 -0.0602,2.13083 -0.0679,2.39419 -0.0117,0.40127 -0.27991,0.47884 -1.65571,0.47884 h -1.64173 v 9.0295 9.0295 h -2.87302 -2.87302 v -9.0295 z m 19.60949,8.94999 c -0.10398,-0.16691 -9.12487,-21.20165 -9.67759,-22.56156 -0.10671,-0.26267 0.56913,-0.34201 2.87302,-0.34201 h 3.0123 l 0.26487,0.75245 c 0.14567,0.41386 1.4092,3.44079 2.8079,6.72644 2.09919,4.93147 2.59278,5.88641 2.82869,5.47242 0.15597,-0.27636 1.47209,-3.26977 2.92502,-6.6572 l 2.6405,-6.15648 2.94471,-0.078 c 2.31538,-0.0613 2.91324,-0.003 2.79723,0.27362 -0.39878,0.95043 -6.84245,16.11274 -8.14379,19.16252 l -1.4885,3.49141 -1.8308,5.5e-4 c -1.00693,2.7e-4 -1.88207,0.0417 -1.9543,-0.0751 z M 62.592015,206.09734 c -2.25834,-0.40107 -3.59922,-3.452 -2.45611,-5.58899 0.85099,-1.59091 3.77543,-2.24083 5.24724,-1.16612 3.17729,2.31997 1.06192,7.43949 -2.79121,6.75517 z m 135.456205,-0.0881 c -1.41137,-0.30246 -2.52681,-1.57966 -2.69681,-3.08781 -0.25064,-2.22358 0.84439,-3.74178 2.98904,-4.14399 1.27811,-0.23977 2.83827,0.47558 3.53737,1.62178 0.57994,0.95105 0.67598,2.79149 0.20017,3.8359 -0.59294,1.30137 -2.44057,2.11491 -4.02962,1.77432 z"
     style="fill:#000000;stroke-width:0.273621"
     id="path1-5"
     sodipodi:nodetypes="ccccccccscscscccssccscccccscsssccsscccsscccccssscccscccscssscccsccsscsccccccccsscccsscsscccccccccccccccscsscscccccccsscsccccccccsccccscscscccccccccccccccccsccsscccccssscccccccccccccccccccccccccccccccccssccccccccsscsccccscccscccsccccsccccc" />
  <path
     d="m 145.19567,146.51696 c -2.03164,-0.19461 -4.49423,-0.49808 -5.47242,-0.6744 -0.9782,-0.17631 -2.33263,-0.42129 -3.00984,-0.54438 -0.67721,-0.12312 -1.72381,-0.36544 -2.32578,-0.53846 -0.60197,-0.17305 -1.52544,-0.41353 -2.05216,-0.53439 -1.10668,-0.25396 -5.07595,-1.56106 -5.88285,-1.93729 -0.30098,-0.14032 -1.27644,-0.52133 -2.16768,-0.84667 -2.46163,-0.89862 -8.52139,-4.092 -11.6932,-6.16222 -7.03208,-4.5941 -13.765895,-10.93391 -18.855243,-17.75255 -1.11955,-1.50026 -1.632869,-2.25869 -3.14856,-4.65156 -0.56366,-0.89201 -3.672,-6.48756 -3.672,-6.61343 0,-0.0423 -0.353409,-0.84951 -0.785349,-1.79386 -7.0649,-15.443187 -8.28799,-33.499454 -3.40111,-50.146572 1.34972,-4.596838 4.76155,-12.511059 6.71849,-15.5841 0.187389,-0.294279 0.96794,-1.525575 1.73457,-2.736212 2.31599,-3.657222 7.065717,-9.702884 7.377647,-9.390682 0.0588,0.05884 0.1523,12.04344 0.20768,26.632379 0.1074,28.289703 0.10437,28.224034 1.543475,34.186241 3.62931,15.040696 14.38509,28.407366 29.37871,36.514766 5.48393,2.96441 12.70013,5.31318 18.50856,6.02404 2.99752,0.36687 10.99438,0.36501 13.96892,-0.003 12.47138,-1.54388 23.5057,-7.0069 32.48979,-16.08647 4.52405,-4.57139 7.6354,-8.83277 10.34917,-14.173314 2.77398,-5.459291 3.90786,-10.432358 4.51941,-19.821672 0.72646,-11.151982 -1.17507,-22.042929 -5.37584,-30.790601 -7.0515,-14.683339 -22.16661,-26.090336 -39.20719,-29.589404 -3.13269,-0.643093 -4.07751,-0.712975 -9.76172,-0.722032 -4.91451,-0.0078 -6.89279,0.09838 -9.0295,0.484802 -5.68585,1.028269 -10.68764,2.554637 -15.23687,4.649646 -0.84549,0.396751 -1.6171,0.719624 -1.70193,0.719624 -0.0848,0 -0.15322,-4.049595 -0.15322,-8.996394 V 6.6421419 l 0.75245,-0.294964 c 2.73556,-1.072294 10.0378,-2.570207 14.96928,-3.070578 4.64335,-0.471176 13.79051,-0.193724 18.20676,0.552441 10.90107,1.841745 20.17136,5.490758 28.9245,11.3840131 1.43925,0.968346 2.70064,1.760479 2.80188,1.760479 0.10327,0 0.44144,0.277042 0.7515,0.615648 0.31007,0.338607 0.96947,0.923472 1.46535,1.299701 3.54641,2.690628 8.91568,8.226697 12.10446,12.480687 9.7141,12.95843 14.69538,27.693209 14.69538,43.467475 -3e-5,4.253443 -0.69191,11.379088 -1.40888,14.510136 -1.48341,6.477984 -4.82914,15.9223 -6.54283,18.46944 -0.25313,0.37623 -0.79848,1.35524 -1.21189,2.17559 -0.41342,0.82035 -0.96214,1.80537 -1.21942,2.18896 -0.25728,0.38359 -0.95007,1.43622 -1.53956,2.33917 -7.76674,11.89677 -20.14756,21.97698 -33.36264,27.16183 -11.39824,4.47261 -21.57668,5.9529 -33.24499,4.83516 z m 4.51475,-46.942463 c -8.7712,-2.01533 -15.89384,-8.367339 -18.7644,-16.73413 -1.00055,-2.916255 -1.34203,-5.130399 -1.34457,-8.718942 -0.009,-13.121781 9.516,-23.847462 22.57156,-25.415859 15.02017,-1.804395 28.59069,11.278943 27.67953,26.686283 -0.18027,3.049782 -0.69385,5.739206 -1.41087,7.387774 -1.26531,2.909415 -2.20542,4.938043 -2.34562,5.061994 -0.0852,0.07525 -0.54503,0.71032 -1.02187,1.411311 -1.32815,1.952342 -4.33853,4.860882 -6.681,6.455273 -1.16087,0.790081 -2.17091,1.436511 -2.24451,1.436511 -0.0736,0 -0.90892,0.3588 -1.85625,0.797333 -0.94733,0.438533 -2.03024,0.857201 -2.40647,0.930394 -0.37623,0.07318 -1.39807,0.330015 -2.27073,0.570774 -1.76992,0.488277 -7.99275,0.570747 -9.90536,0.131273 z"
     style="fill:#d4181f;stroke-width:0.273621"
     id="path1-8" />
</svg>
